Coordinates
version=1
nRows=11
nColumns=40
inDegrees=yes

Units are S.I. units (second, meters, Newtons, ...)
Angles are in degrees.

endheader
time	pelvis_tilt	pelvis_list	pelvis_rotation	pelvis_tx	pelvis_ty	pelvis_tz	hip_flexion_r	hip_adduction_r	hip_rotation_r	knee_angle_r	knee_angle_r_beta	ankle_angle_r	subtalar_angle_r	mtp_angle_r	hip_flexion_l	hip_adduction_l	hip_rotation_l	knee_angle_l	knee_angle_l_beta	ankle_angle_l	subtalar_angle_l	mtp_angle_l	lumbar_extension	lumbar_bending	lumbar_rotation	arm_flex_r	arm_add_r	arm_rot_r	elbow_flex_r	pro_sup_r	wrist_flex_r	wrist_dev_r	arm_flex_l	arm_add_l	arm_rot_l	elbow_flex_l	pro_sup_l	wrist_flex_l	wrist_dev_l
     54.80000000	     -2.49393017	     -5.51426219	     -1.27819942	      1.07600967	      0.93438976	      0.41611247	     29.13862006	     -4.50826351	     -4.61743850	     65.61100907	     65.61100907	     -0.67137492	    -17.91383513	      5.51159740	     13.87418336	     -6.91753825	     -6.68017124	     23.31488286	     23.31488286	     13.36965212	    -14.15244754	      1.62454178	    -10.94264360	      4.99212001	      1.36992189	      5.54355695	    -14.02379927	     -4.03793498	     28.01563430	     46.02186380	      0.00000000	      0.00000000	      9.41831127	    -15.36589538	     -5.20446107	     54.28201132	     46.14802389	      0.00000000	      0.00000000
     54.81342857	     -2.68718733	     -5.66018270	     -1.72280721	      1.07488843	      0.93474857	      0.41588479	     30.14564314	     -4.21187434	     -4.60739230	     63.91503740	     63.91503740	     -0.32346557	    -17.57002971	      5.45036068	     13.48337123	     -7.05852419	     -6.97176504	     22.97018000	     22.97018000	     13.52322936	    -14.25824570	      1.66286628	    -10.94608828	      5.19970506	      0.96642982	      4.83012258	    -14.33950154	     -4.07163161	     27.56782202	     46.03919025	      0.00000000	      0.00000000	     10.24322332	    -15.76686845	     -5.32972362	     54.82952638	     46.17638688	      0.00000000	      0.00000000
     54.82685714	     -2.71118006	     -5.83064340	     -2.21546937	      1.07397585	      0.93543853	      0.41575532	     30.76315039	     -3.79659491	     -4.50313532	     61.85838114	     61.85838114	     -0.09770663	    -17.25408588	      4.90660345	     12.74928350	     -7.22061476	     -7.34256399	     22.37958049	     22.37958049	     13.63811082	    -14.24086361	      1.62929403	    -11.19292584	      5.39733728	      1.36485200	      3.80970249	    -14.85213580	     -4.20884787	     26.50138944	     46.09439469	      0.00000000	      0.00000000	     11.16916151	    -15.74698995	     -5.27232863	     56.72461085	     46.21982148	      0.00000000	      0.00000000
     54.84028571	     -2.88230104	     -6.04002655	     -2.64325150	      1.07295246	      0.93591099	      0.41555568	     31.39101925	     -3.41539990	     -4.59244884	     59.50403619	     59.50403619	      0.09533351	    -16.73752824	      4.63619402	     12.27428343	     -7.42257217	     -7.68306892	     21.91694553	     21.91694553	     13.73888465	    -14.25889574	      1.61625749	    -11.21921799	      5.70385029	      1.15171420	      3.07437058	    -15.22084368	     -4.37275282	     25.96081981	     46.12843455	      0.00000000	      0.00000000	     11.82380889	    -16.03843125	     -5.27018514	     57.83155679	     46.24906953	      0.00000000	      0.00000000
     54.85371429	     -3.07455641	     -6.19059402	     -3.09588226	      1.07195941	      0.93620241	      0.41554967	     31.91404180	     -3.02069877	     -4.57462671	     56.89740347	     56.89740347	      0.40095860	    -16.05574786	      4.37493537	     11.83358969	     -7.57712518	     -8.02371220	     21.48347750	     21.48347750	     13.83939474	    -14.26197834	      1.59525244	    -11.25015728	      5.90202332	      1.02583289	      2.34785873	    -15.55984225	     -4.53409578	     25.48082816	     46.15918143	      0.00000000	      0.00000000	     12.57345545	    -16.37128516	     -5.31131795	     58.95614684	     46.28098026	      0.00000000	      0.00000000
     54.86714286	     -3.17492947	     -6.28134801	     -3.56488352	      1.07109041	      0.93653165	      0.41566410	     32.07769570	     -2.67791020	     -4.56630109	     53.73667509	     53.73667509	     -0.22105138	    -15.56816236	      1.24148737	     11.23074299	     -7.67090996	     -8.48849985	     20.94309703	     20.94309703	     13.72661998	    -14.27207149	      0.95906488	    -11.46150861	      5.98145397	      0.77289585	      1.99520194	    -15.63606893	     -6.09803811	     24.60759619	     46.35083276	      0.00000000	      0.00000000	     12.40169967	    -17.13968347	     -4.79444625	     62.41164261	     46.36705896	      0.00000000	      0.00000000
     54.88057143	     -3.34381376	     -6.36970948	     -4.00744764	      1.07024868	      0.93675656	      0.41586238	     32.21689609	     -2.33470983	     -4.59427698	     50.39651385	     50.39651385	      0.16977685	    -14.30356008	      0.80240500	     10.74428775	     -7.75615453	     -8.85006762	     20.47515821	     20.47515821	     13.83247365	    -14.24278351	      0.96365725	    -11.52983459	      6.11329897	      0.89068449	      1.28277746	    -15.90537660	     -6.39641890	     24.16809596	     46.39447122	      0.00000000	      0.00000000	     13.32959573	    -17.20674057	     -4.97592160	     63.30639960	     46.41950123	      0.00000000	      0.00000000
     54.89400000	     -3.68673565	     -6.47918567	     -4.43603893	      1.06939044	      0.93665089	      0.41627521	     32.36788380	     -1.89501950	     -4.61271839	     46.70038246	     46.70038246	      0.66096225	    -12.90741768	      0.71346063	     10.50233979	     -7.88845128	     -9.16694517	     20.09500257	     20.09500257	     13.94857019	    -14.27769975	      0.97067571	    -11.36005532	      6.27456559	      0.73461391	      0.75269040	    -16.05484880	     -6.52020374	     23.95814327	     46.41094383	      0.00000000	      0.00000000	     14.05979482	    -17.47449875	     -5.08137570	     63.95154746	     46.44833324	      0.00000000	      0.00000000
     54.90742857	     -3.83253669	     -6.54511919	     -4.81089488	      1.06882293	      0.93677524	      0.41667650	     32.02281327	     -1.58029402	     -4.81805008	     42.55948382	     42.55948382	      1.22617377	    -10.93371759	      0.35107632	     10.00181199	     -7.95405855	     -9.50801227	     19.65440651	     19.65440651	     14.05179149	    -14.20521612	      0.94963367	    -11.42853881	      6.40022223	      0.78535348	      0.16298038	    -16.26423773	     -6.71246445	     23.75770193	     46.43315351	      0.00000000	      0.00000000	     14.78477040	    -17.51119048	     -5.09882953	     64.95276648	     46.47828046	      0.00000000	      0.00000000
     54.92085714	     -4.05804360	     -6.56134235	     -5.19063910	      1.06836528	      0.93664598	      0.41727555	     31.57507454	     -1.26707184	     -5.05304913	     38.12244503	     38.12244503	      1.73560804	     -8.69614754	      0.00390936	      9.58551330	     -7.98439389	     -9.86700806	     19.21514269	     19.21514269	     14.16604591	    -14.14214322	      0.89182320	    -11.40421896	      6.46060095	      0.83923380	     -0.38209651	    -16.33298701	     -6.91243452	     23.66319372	     46.45114515	      0.00000000	      0.00000000	     15.46244683	    -17.59280011	     -5.07896626	     65.96586639	     46.50563236	      0.00000000	      0.00000000
     54.93428571	     -4.19366864	     -6.49789116	     -5.53029774	      1.06805939	      0.93646755	      0.41791240	     30.84125077	     -1.05613891	     -5.46757374	     33.45799178	     33.45799178	      2.14134351	     -6.01068413	     -0.46657460	      9.09064633	     -7.92131465	    -10.22494678	     18.81400742	     18.81400742	     14.26267793	    -14.02463297	      0.76516572	    -11.48845158	      6.43713724	      0.92768295	     -0.92297223	    -16.35658798	     -7.20271202	     23.71023473	     46.47083262	      0.00000000	      0.00000000	     16.09744266	    -17.66276757	     -4.97392587	     67.11535447	     46.53235934	      0.00000000	      0.00000000
